<svg width="1247" height="1243" viewBox="0 0 1247 1243" fill="none" xmlns="http://www.w3.org/2000/svg">
<path d="M588.257 10.9886C1105.21 -18.5166 1429.36 578.291 1110.47 992.878C844.4 1338.77 313.647 1305.41 93.3445 929.372C-137.482 535.325 137.847 36.7186 588.257 10.9886ZM605.631 25.8901C165.621 40.295 -115.789 517.269 99.8722 907.939C313.424 1294.78 855.916 1325.65 1111.51 964.143C1394.98 563.216 1090.59 10.02 605.631 25.8901Z" fill="#061C33"/>
<path d="M593.839 0.747905C1115.49 -24.1724 1441.27 579.092 1118.34 998.937C847.98 1350.4 308.649 1316.52 84.78 934.395C-149.881 533.802 130.034 27.2146 587.692 1.07048L593.839 0.747905ZM1103.41 958.404C1380.98 565.817 1085.16 24.4607 611.535 35.6613L605.955 35.819C173.14 49.9883 -103.408 519.151 108.563 903.135C318.579 1283.57 852.047 1313.93 1103.41 958.404Z" fill="#0E2F4F"/>
<path d="M381.158 430.666C379.346 423.588 371.354 416.46 364.603 409.779C361.153 406.352 363.734 400.441 368.599 400.689C488.207 406.998 583.789 492.458 625.561 601.364C630.277 602.78 629.16 599.079 630.525 596.496C673.687 491.018 768.748 406.725 885.502 400.665C890.069 400.416 892.749 405.731 889.895 409.308L873.439 429.872C872.695 430.815 872.273 431.983 872.273 433.2V534.754C872.273 538.281 875.648 540.814 879.024 539.87C916.477 529.29 955.445 520.523 994.512 522.311C999.004 522.51 1001.29 527.775 998.284 531.128C992.055 538.107 986.793 546.029 984.137 555.144C984.038 555.442 983.988 555.74 983.938 556.063C975.127 620.363 1001.29 745.239 969.443 799.157C940.95 847.414 885.105 842.695 836.085 840.137C831.618 839.913 829.433 834.598 832.412 831.295C840.205 822.677 849.935 811.7 849.935 803.653V581.917C849.935 578.117 846.063 575.584 842.563 577.025C761.699 610.379 691.061 677.039 653.583 756.042C649.24 765.207 638.22 801.691 635.489 804.944C632.759 808.198 625.934 807.9 620.721 807.428C618.537 807.229 616.725 805.689 616.105 803.578C587.289 702.397 506.524 614.229 408.361 576.727C404.861 575.386 401.113 577.944 401.113 581.694V796.202C401.113 799.778 408.559 815.723 411.265 820.318C411.389 820.516 411.513 820.715 411.662 820.889L420.076 831.568C422.881 835.145 420.2 840.385 415.658 840.137C400.046 839.292 384.062 843.167 367.557 842.198C185.75 831.568 322.806 567.239 247.428 524.372C246.757 520.299 250.778 522.063 253.558 521.914C295.082 519.927 335.042 528.47 374.506 539.796C377.907 540.764 381.282 538.231 381.282 534.704V432.008C381.282 431.561 381.233 431.114 381.133 430.691L381.158 430.666ZM401.138 427.612V547.992C499.848 588.524 586.023 664.696 625.561 765.182L661.948 699.863C707.741 633.353 772.645 577.621 849.935 551.717V427.612C741.272 450.411 657.058 546.874 634.099 653.346L620.846 653.619C594.338 547.296 513.921 445.965 401.138 427.612ZM381.307 564.11C352.342 554.126 322.384 548.364 292.054 544.266V763.915C304.241 806.012 338.666 823.969 381.307 819.771V564.11ZM961.526 546.725C950.406 542.925 873.365 561.08 872.099 565.625L869.741 818.48C900.295 824.267 937.103 813.413 952.69 784.852C954.849 780.903 961.526 764.536 961.526 761.432V546.725Z" fill="#061C33"/>
<path d="M867.31 433.2C867.31 430.827 868.131 428.583 869.542 426.795L869.564 426.768L886.019 406.203C886.066 406.144 886.084 406.104 886.092 406.084C886.1 406.063 886.105 406.043 886.107 406.021C886.11 405.972 886.1 405.89 886.053 405.798C886.007 405.707 885.952 405.661 885.927 405.645C885.917 405.639 885.908 405.634 885.896 405.631C885.884 405.628 885.846 405.62 885.772 405.623L885.76 405.626C771.356 411.564 677.731 494.243 635.119 598.379L635.026 598.604L634.913 598.818C634.919 598.805 634.895 598.854 634.847 599.004C634.797 599.162 634.744 599.363 634.67 599.679C634.574 600.089 634.319 601.374 633.829 602.465C633.222 603.818 631.995 605.532 629.667 606.288C627.669 606.937 625.682 606.587 624.136 606.123L621.8 605.422L620.927 603.144C579.702 495.665 485.59 411.836 368.342 405.65C368.254 405.646 368.21 405.656 368.196 405.66C368.181 405.664 368.17 405.67 368.16 405.677C368.133 405.695 368.074 405.748 368.029 405.851C367.983 405.957 367.981 406.044 367.988 406.084C367.99 406.101 367.996 406.116 368.005 406.133C368.013 406.149 368.037 406.189 368.099 406.252C371.332 409.45 375.244 413.123 378.466 416.8C381.657 420.441 384.761 424.72 385.968 429.433L386.668 432.174L386.246 432.596V534.705C386.246 541.56 379.688 546.436 373.148 544.574L373.138 544.571C335.415 533.746 297.642 525.604 258.653 526.696C264.518 532.482 268.638 539.879 271.478 548.314C275.537 560.371 277.095 574.843 277.394 590.528C277.695 606.247 276.733 623.529 275.579 641.291C274.421 659.121 273.07 677.441 272.544 695.518C271.489 731.826 273.83 766.075 287.097 791.803C293.67 804.549 302.922 815.19 315.851 822.994C328.408 830.573 344.68 835.623 365.789 837.107L367.847 837.24L369.314 837.313C376.641 837.613 383.935 836.967 391.484 836.268C399.412 835.533 407.69 834.731 415.926 835.176C416 835.18 416.041 835.172 416.055 835.169C416.068 835.166 416.079 835.163 416.089 835.157C416.112 835.143 416.164 835.098 416.207 835.014C416.251 834.93 416.259 834.856 416.256 834.812C416.255 834.793 416.251 834.774 416.244 834.754C416.236 834.735 416.218 834.695 416.171 834.635L407.763 823.964C407.398 823.511 407.134 823.076 407.055 822.95L406.987 822.838C405.487 820.29 402.857 814.948 400.629 809.877C399.505 807.317 398.44 804.728 397.646 802.506C397.25 801.399 396.897 800.322 396.64 799.351C396.409 798.481 396.15 797.325 396.15 796.203V581.694C396.15 574.431 403.415 569.512 410.136 572.087C509.747 610.144 591.612 699.507 620.866 802.176C620.934 802.407 621.093 802.475 621.172 802.482C623.745 802.715 626.345 802.864 628.535 802.642C630.598 802.433 631.393 801.973 631.616 801.803C631.635 801.768 631.661 801.727 631.686 801.677C631.844 801.372 632.054 800.927 632.314 800.321C632.834 799.113 633.471 797.478 634.202 795.497C635.662 791.544 637.412 786.453 639.234 781.107C642.8 770.65 646.769 758.83 649.099 753.914C687.112 673.785 758.68 606.252 840.672 572.432C847.363 569.678 854.9 574.501 854.9 581.917V803.654C854.899 809.36 851.601 815.236 848.152 820.124C844.548 825.232 839.967 830.34 836.096 834.621C836.049 834.673 836.032 834.71 836.025 834.725C836.018 834.741 836.013 834.757 836.011 834.774C836.005 834.812 836.007 834.884 836.042 834.97C836.078 835.056 836.127 835.108 836.156 835.13C836.169 835.14 836.184 835.148 836.202 835.154C836.22 835.161 836.26 835.173 836.333 835.176H836.343C861.079 836.467 886.603 838.216 909.528 833.823C932.167 829.484 951.827 819.227 965.17 796.63L965.858 795.436C972.864 782.975 976.9 766.331 978.966 746.943C981.092 726.995 981.094 704.594 980.367 681.661C980.004 670.207 979.461 658.663 978.918 647.255C978.375 635.861 977.832 624.594 977.473 613.756C976.756 592.135 976.755 571.912 979.02 555.389L979.027 555.347L979.032 555.309C979.076 555.02 979.168 554.425 979.373 553.754C982.305 543.691 988.057 535.13 994.583 527.819L994.588 527.812C994.64 527.753 994.661 527.715 994.668 527.7C994.675 527.685 994.678 527.672 994.68 527.662C994.683 527.637 994.682 527.577 994.648 527.499C994.615 527.421 994.566 527.367 994.525 527.337C994.5 527.318 994.441 527.28 994.292 527.274H994.285C956.051 525.523 917.72 534.101 880.372 544.651L880.36 544.654C873.846 546.475 867.31 541.596 867.31 534.753V433.2ZM292.718 539.345C323.215 543.465 353.528 549.283 382.923 559.415L386.271 560.567V824.274L381.794 824.716C359.681 826.892 339.293 823.361 322.718 813.469C306.073 803.535 293.694 787.432 287.286 765.298L287.09 764.619V538.583L292.718 539.345ZM954.321 541.297C957.473 541.156 960.757 541.213 963.131 542.025L966.491 543.172V761.432C966.491 762.475 966.247 763.578 966.052 764.365C965.826 765.273 965.519 766.304 965.17 767.379C964.469 769.538 963.531 772.096 962.542 774.631C960.602 779.607 958.293 784.947 957.045 787.231C940.107 818.268 900.75 829.408 868.817 823.36L864.738 822.589L867.135 565.578L867.143 564.923L867.317 564.292C867.729 562.813 868.658 561.885 869.086 561.493C869.608 561.016 870.169 560.642 870.638 560.361C871.586 559.792 872.748 559.257 873.963 558.758C876.432 557.743 879.768 556.622 883.613 555.464C891.337 553.137 901.557 550.531 912.039 548.197C922.522 545.864 933.371 543.78 942.349 542.517C946.83 541.887 950.928 541.449 954.321 541.297ZM297.018 763.186C302.845 782.799 313.685 796.511 327.803 804.937C341.095 812.87 357.651 816.325 376.343 815.181V567.673C350.624 559.12 324.061 553.822 297.018 549.968V763.186ZM956.563 551.176C956.016 551.179 955.416 551.193 954.764 551.222C951.81 551.354 948.055 551.746 943.731 552.354C935.097 553.569 924.522 555.596 914.196 557.894C903.871 560.192 893.897 562.74 886.473 564.976C882.743 566.1 879.765 567.114 877.735 567.947C877.478 568.053 877.248 568.159 877.039 568.25L874.744 814.26C902.966 818.111 934.756 807.35 948.334 782.47L948.336 782.468C949.248 780.801 951.356 775.987 953.293 771.02C954.244 768.582 955.107 766.219 955.726 764.311C956.037 763.355 956.269 762.567 956.417 761.971C956.555 761.414 956.565 761.236 956.563 761.309V551.176ZM854.9 555.292L851.511 556.427C775.523 581.894 711.479 636.75 666.168 702.486L624.788 776.773L620.942 767.001C581.989 668.006 496.96 592.708 399.253 552.587L396.174 551.321V421.772L401.936 422.708C515.919 441.257 596.891 542.406 624.674 648.569L630.104 648.458C654.586 541.895 739.363 445.735 848.915 422.749L854.9 421.495V555.292ZM406.103 544.681C501.385 584.62 584.968 657.587 626.235 753.768L657.612 697.446L657.726 697.24L657.859 697.046C703.459 630.815 767.952 574.953 844.972 548.163V433.814C741.398 458.381 661.136 551.508 638.951 654.393L638.124 658.23L616.988 658.666L616.028 654.822C590.287 551.574 513.307 453.929 406.103 433.532V544.681ZM877.238 534.753C877.238 534.83 877.252 534.874 877.267 534.904C877.286 534.941 877.321 534.986 877.374 535.025C877.426 535.064 877.482 535.086 877.529 535.095C877.548 535.099 877.57 535.104 877.597 535.103L877.689 535.086C915.244 524.477 954.844 515.523 994.738 517.349C1003.28 517.73 1007.86 527.865 1001.98 534.436L1001.99 534.438C996.053 541.084 991.281 548.368 988.901 556.533L988.875 556.621C988.873 556.63 988.872 556.642 988.87 556.655C988.863 556.695 988.857 556.746 988.846 556.82C986.716 572.432 986.683 591.901 987.396 613.426C987.753 624.178 988.29 635.37 988.834 646.784C989.376 658.185 989.924 669.802 990.29 681.346C991.021 704.409 991.039 727.356 988.839 747.996C986.645 768.57 982.207 787.308 973.716 801.684C958.566 827.342 936.056 838.854 911.395 843.58C887.023 848.251 860.117 846.363 835.836 845.096C827.178 844.662 822.955 834.37 828.727 827.968L828.732 827.963C832.653 823.627 836.834 818.941 840.042 814.396C843.405 809.629 844.971 805.994 844.972 803.654V581.917C844.972 581.829 844.952 581.789 844.94 581.767C844.922 581.735 844.886 581.69 844.826 581.651C844.766 581.611 844.702 581.591 844.647 581.585C844.602 581.58 844.541 581.582 844.451 581.619C764.717 614.509 695.011 680.297 658.067 758.173C656.054 762.422 652.341 773.426 648.629 784.313C646.813 789.64 645.025 794.852 643.515 798.941C642.761 800.981 642.055 802.805 641.433 804.25C641.123 804.971 640.81 805.65 640.504 806.241C640.238 806.756 639.829 807.495 639.29 808.138C636.619 811.32 632.528 812.223 629.536 812.526C626.33 812.85 622.913 812.614 620.275 812.375C615.986 811.985 612.516 808.971 611.343 804.98L611.336 804.961L611.331 804.939C582.943 705.263 503.291 618.311 406.59 581.367L406.585 581.365C406.307 581.259 406.078 581.458 406.078 581.694V796.111C406.088 796.162 406.123 796.376 406.236 796.802C406.396 797.405 406.648 798.197 406.992 799.159C407.678 801.077 408.644 803.432 409.719 805.88C411.868 810.773 414.287 815.649 415.505 817.733C415.508 817.739 415.511 817.744 415.514 817.75C415.519 817.758 415.525 817.765 415.529 817.772L415.56 817.813L423.973 828.494L423.981 828.502C429.371 835.375 424.269 845.581 415.388 845.096C408.014 844.697 400.493 845.411 392.401 846.161C384.433 846.899 375.948 847.667 367.265 847.158C343.928 845.793 325.36 840.335 310.725 831.502C296.056 822.648 285.597 810.56 278.274 796.36C263.751 768.198 261.559 731.69 262.619 695.229C263.151 676.922 264.52 658.353 265.67 640.648C266.825 622.875 267.76 605.972 267.469 590.717C267.177 575.427 265.655 562.131 262.071 551.486C258.515 540.923 253.042 533.277 244.976 528.69L242.915 527.518L242.53 525.18C242.274 523.622 242.209 521.233 243.829 519.197C245.462 517.146 247.743 516.792 248.861 516.716C250.017 516.637 251.229 516.782 251.859 516.849C252.712 516.94 253.069 516.965 253.292 516.954L253.321 516.951C295.653 514.926 336.228 523.643 375.865 535.018C376.125 535.092 376.318 534.902 376.318 534.705V432.007C376.318 431.921 376.308 431.858 376.301 431.83L376.19 431.362C375.465 429.11 373.726 426.459 371.001 423.348C368.087 420.023 364.631 416.793 361.114 413.312L361.106 413.305C354.671 406.911 359.088 395.957 367.978 395.718L368.853 395.728L368.86 395.73C487.94 402.011 583.268 485.179 627.098 591.794C671.343 486.288 767.185 401.839 885.232 395.706C894.18 395.219 899.239 405.559 893.773 412.407L893.771 412.412L877.33 432.958C877.257 433.053 877.238 433.141 877.238 433.2V534.753Z" fill="#0E2F4F"/>
</svg>
